<mxfile host="app.diagrams.net" agent="Mozilla/5.0 (Macintosh; Intel Mac OS X 10_15_7) AppleWebKit/605.1.15 (KHTML, like Gecko) Version/16.5 Safari/605.1.15" version="26.2.8">
  <diagram name="Page-1" id="e3a06f82-3646-2815-327d-82caf3d4e204">
    <mxGraphModel dx="1341" dy="816" grid="1" gridSize="10" guides="1" tooltips="1" connect="1" arrows="1" fold="1" page="1" pageScale="1.5" pageWidth="1169" pageHeight="826" background="none" math="0" shadow="0">
      <root>
        <mxCell id="0" style=";html=1;" />
        <mxCell id="1" style=";html=1;" parent="0" />
        <mxCell id="6j4duPhXvXTDxxQr8vu_-91" value="" style="rounded=1;whiteSpace=wrap;html=1;sketch=0;align=center;verticalAlign=top;fontFamily=Helvetica;fontSize=12;fillColor=#647687;arcSize=6;strokeColor=#314354;fontColor=#ffffff;gradientDirection=south;labelBackgroundColor=none;glass=1;opacity=50;" vertex="1" parent="1">
          <mxGeometry x="683" y="60" width="587" height="468" as="geometry" />
        </mxCell>
        <mxCell id="6j4duPhXvXTDxxQr8vu_-82" value="" style="rounded=1;whiteSpace=wrap;html=1;align=center;verticalAlign=top;fontFamily=Helvetica;fontSize=12;fillColor=#76608a;arcSize=6;strokeColor=#432D57;fontColor=#ffffff;gradientDirection=south;labelBackgroundColor=none;glass=1;opacity=50;" vertex="1" parent="1">
          <mxGeometry x="70" y="60" width="587" height="468" as="geometry" />
        </mxCell>
        <mxCell id="6j4duPhXvXTDxxQr8vu_-2" value="" style="verticalLabelPosition=bottom;sketch=0;aspect=fixed;html=1;verticalAlign=top;strokeColor=none;align=center;outlineConnect=0;shape=mxgraph.citrix.file_server;labelBackgroundColor=none;fillColor=#F45B69;fontColor=#E4FDE1;" vertex="1" parent="1">
          <mxGeometry x="410" y="401" width="71" height="97" as="geometry" />
        </mxCell>
        <mxCell id="6j4duPhXvXTDxxQr8vu_-39" style="edgeStyle=orthogonalEdgeStyle;rounded=0;orthogonalLoop=1;jettySize=auto;html=1;curved=1;endArrow=none;startFill=0;dashed=1;dashPattern=1 2;labelBackgroundColor=none;strokeColor=#000000;fontColor=default;" edge="1" parent="1" source="6j4duPhXvXTDxxQr8vu_-4" target="6j4duPhXvXTDxxQr8vu_-11">
          <mxGeometry relative="1" as="geometry" />
        </mxCell>
        <mxCell id="6j4duPhXvXTDxxQr8vu_-4" value="" style="verticalLabelPosition=bottom;sketch=0;aspect=fixed;html=1;verticalAlign=top;strokeColor=#028090;align=center;outlineConnect=0;shape=mxgraph.citrix.firewall;fillColor=#F45B69;fillStyle=auto;labelBackgroundColor=none;fontColor=#E4FDE1;" vertex="1" parent="1">
          <mxGeometry x="250" y="270" width="75" height="93" as="geometry" />
        </mxCell>
        <mxCell id="6j4duPhXvXTDxxQr8vu_-6" value="" style="verticalLabelPosition=bottom;sketch=0;aspect=fixed;html=1;verticalAlign=top;strokeColor=none;align=center;outlineConnect=0;shape=mxgraph.citrix.printer;labelBackgroundColor=none;fillColor=#F45B69;fontColor=#E4FDE1;" vertex="1" parent="1">
          <mxGeometry x="770" y="391" width="70" height="70" as="geometry" />
        </mxCell>
        <mxCell id="6j4duPhXvXTDxxQr8vu_-77" style="edgeStyle=orthogonalEdgeStyle;rounded=0;orthogonalLoop=1;jettySize=auto;html=1;fontFamily=Helvetica;fontSize=12;fontColor=default;endArrow=none;startFill=0;startArrow=none;dashed=1;dashPattern=1 2;curved=1;labelBackgroundColor=none;strokeColor=#000000;" edge="1" parent="1" source="6j4duPhXvXTDxxQr8vu_-9" target="6j4duPhXvXTDxxQr8vu_-13">
          <mxGeometry relative="1" as="geometry" />
        </mxCell>
        <mxCell id="6j4duPhXvXTDxxQr8vu_-9" value="" style="verticalLabelPosition=bottom;sketch=0;aspect=fixed;html=1;verticalAlign=top;strokeColor=none;align=center;outlineConnect=0;shape=mxgraph.citrix.desktop;labelBackgroundColor=none;fillColor=#F45B69;fontColor=#E4FDE1;" vertex="1" parent="1">
          <mxGeometry x="1141" y="321" width="89" height="98" as="geometry" />
        </mxCell>
        <mxCell id="6j4duPhXvXTDxxQr8vu_-75" style="edgeStyle=orthogonalEdgeStyle;rounded=0;orthogonalLoop=1;jettySize=auto;html=1;fontFamily=Helvetica;fontSize=12;fontColor=default;curved=1;dashed=1;endArrow=none;startFill=0;dashPattern=1 2;labelBackgroundColor=none;strokeColor=#000000;" edge="1" parent="1" source="6j4duPhXvXTDxxQr8vu_-10" target="6j4duPhXvXTDxxQr8vu_-13">
          <mxGeometry relative="1" as="geometry" />
        </mxCell>
        <object label="" id="6j4duPhXvXTDxxQr8vu_-10">
          <mxCell style="verticalLabelPosition=bottom;sketch=0;aspect=fixed;html=1;verticalAlign=top;strokeColor=none;align=center;outlineConnect=0;shape=mxgraph.citrix.desktop;labelBackgroundColor=none;fillColor=#F45B69;fontColor=#E4FDE1;" vertex="1" parent="1">
            <mxGeometry x="970" y="394" width="89" height="98" as="geometry" />
          </mxCell>
        </object>
        <mxCell id="6j4duPhXvXTDxxQr8vu_-65" style="edgeStyle=elbowEdgeStyle;rounded=0;orthogonalLoop=1;jettySize=auto;html=1;fontFamily=Helvetica;fontSize=12;fontColor=default;curved=1;endArrow=none;startFill=0;dashed=1;dashPattern=1 2;labelBackgroundColor=none;strokeColor=#000000;" edge="1" parent="1" source="6j4duPhXvXTDxxQr8vu_-11" target="6j4duPhXvXTDxxQr8vu_-64">
          <mxGeometry relative="1" as="geometry" />
        </mxCell>
        <mxCell id="6j4duPhXvXTDxxQr8vu_-11" value="" style="verticalLabelPosition=bottom;sketch=0;aspect=fixed;html=1;verticalAlign=top;strokeColor=none;align=center;outlineConnect=0;shape=mxgraph.citrix.router;labelBackgroundColor=none;fillColor=#F45B69;fontColor=#E4FDE1;" vertex="1" parent="1">
          <mxGeometry x="234" y="170" width="55" height="36.5" as="geometry" />
        </mxCell>
        <mxCell id="6j4duPhXvXTDxxQr8vu_-43" style="edgeStyle=orthogonalEdgeStyle;rounded=0;orthogonalLoop=1;jettySize=auto;html=1;curved=1;dashed=1;dashPattern=1 2;startArrow=none;startFill=0;endArrow=none;labelBackgroundColor=none;strokeColor=none;fontColor=default;" edge="1" parent="1" source="6j4duPhXvXTDxxQr8vu_-12" target="6j4duPhXvXTDxxQr8vu_-2">
          <mxGeometry relative="1" as="geometry" />
        </mxCell>
        <mxCell id="6j4duPhXvXTDxxQr8vu_-66" style="edgeStyle=orthogonalEdgeStyle;rounded=0;orthogonalLoop=1;jettySize=auto;html=1;fontFamily=Helvetica;fontSize=12;fontColor=default;curved=1;dashed=1;dashPattern=1 2;endArrow=none;startFill=0;labelBackgroundColor=none;strokeColor=#000000;" edge="1" parent="1" source="6j4duPhXvXTDxxQr8vu_-12" target="6j4duPhXvXTDxxQr8vu_-18">
          <mxGeometry relative="1" as="geometry" />
        </mxCell>
        <mxCell id="6j4duPhXvXTDxxQr8vu_-90" style="edgeStyle=orthogonalEdgeStyle;rounded=0;orthogonalLoop=1;jettySize=auto;html=1;strokeColor=#000000;fontColor=#E4FDE1;fillColor=#F45B69;curved=1;dashed=1;dashPattern=1 2;endArrow=none;startFill=0;" edge="1" parent="1" source="6j4duPhXvXTDxxQr8vu_-12" target="6j4duPhXvXTDxxQr8vu_-2">
          <mxGeometry relative="1" as="geometry" />
        </mxCell>
        <mxCell id="6j4duPhXvXTDxxQr8vu_-12" value="" style="verticalLabelPosition=bottom;sketch=0;aspect=fixed;html=1;verticalAlign=top;strokeColor=none;align=center;outlineConnect=0;shape=mxgraph.citrix.switch;labelBackgroundColor=none;fillColor=#F45B69;fontColor=#E4FDE1;" vertex="1" parent="1">
          <mxGeometry x="430" y="291.5" width="92" height="41.5" as="geometry" />
        </mxCell>
        <mxCell id="6j4duPhXvXTDxxQr8vu_-29" style="edgeStyle=orthogonalEdgeStyle;rounded=0;orthogonalLoop=1;jettySize=auto;html=1;dashed=1;dashPattern=1 2;curved=1;endArrow=none;startFill=0;labelBackgroundColor=none;strokeColor=#000000;fontColor=default;" edge="1" parent="1" source="6j4duPhXvXTDxxQr8vu_-13" target="6j4duPhXvXTDxxQr8vu_-6">
          <mxGeometry relative="1" as="geometry">
            <Array as="points">
              <mxPoint x="930" y="426" />
            </Array>
          </mxGeometry>
        </mxCell>
        <mxCell id="6j4duPhXvXTDxxQr8vu_-13" value="" style="verticalLabelPosition=bottom;sketch=0;aspect=fixed;html=1;verticalAlign=top;strokeColor=none;align=center;outlineConnect=0;shape=mxgraph.citrix.switch;labelBackgroundColor=none;fillColor=#F45B69;fontColor=#E4FDE1;" vertex="1" parent="1">
          <mxGeometry x="940" y="291.5" width="92" height="41.5" as="geometry" />
        </mxCell>
        <mxCell id="6j4duPhXvXTDxxQr8vu_-70" style="edgeStyle=orthogonalEdgeStyle;rounded=0;orthogonalLoop=1;jettySize=auto;html=1;fontFamily=Helvetica;fontSize=12;fontColor=default;endArrow=none;startFill=0;dashed=1;dashPattern=1 2;startArrow=none;curved=1;labelBackgroundColor=none;strokeColor=#000000;" edge="1" parent="1" target="6j4duPhXvXTDxxQr8vu_-13">
          <mxGeometry relative="1" as="geometry">
            <mxPoint x="870" y="142.9999999999999" as="sourcePoint" />
            <Array as="points">
              <mxPoint x="870" y="311" />
              <mxPoint x="965" y="311" />
            </Array>
          </mxGeometry>
        </mxCell>
        <mxCell id="6j4duPhXvXTDxxQr8vu_-14" value="" style="verticalLabelPosition=bottom;sketch=0;aspect=fixed;html=1;verticalAlign=top;strokeColor=none;align=center;outlineConnect=0;shape=mxgraph.citrix.laptop_1;labelBackgroundColor=none;fillColor=#F45B69;fontColor=#E4FDE1;" vertex="1" parent="1">
          <mxGeometry x="810" y="67" width="91" height="77" as="geometry" />
        </mxCell>
        <mxCell id="6j4duPhXvXTDxxQr8vu_-79" style="edgeStyle=orthogonalEdgeStyle;rounded=0;orthogonalLoop=1;jettySize=auto;html=1;fontFamily=Helvetica;fontSize=12;fontColor=default;curved=1;endArrow=none;startFill=0;startArrow=none;dashed=1;dashPattern=1 2;labelBackgroundColor=none;strokeColor=#000000;" edge="1" parent="1" target="6j4duPhXvXTDxxQr8vu_-13">
          <mxGeometry relative="1" as="geometry">
            <mxPoint x="1065.5714285714284" y="142.9999999999999" as="sourcePoint" />
            <Array as="points">
              <mxPoint x="1066" y="321" />
            </Array>
          </mxGeometry>
        </mxCell>
        <mxCell id="6j4duPhXvXTDxxQr8vu_-15" value="" style="verticalLabelPosition=bottom;sketch=0;aspect=fixed;html=1;verticalAlign=top;strokeColor=none;align=center;outlineConnect=0;shape=mxgraph.citrix.laptop_1;labelBackgroundColor=none;fillColor=#F45B69;fontColor=#E4FDE1;" vertex="1" parent="1">
          <mxGeometry x="1020" y="67" width="91" height="77" as="geometry" />
        </mxCell>
        <mxCell id="6j4duPhXvXTDxxQr8vu_-72" style="edgeStyle=orthogonalEdgeStyle;rounded=0;orthogonalLoop=1;jettySize=auto;html=1;fontFamily=Helvetica;fontSize=12;fontColor=default;curved=1;endArrow=none;startFill=0;startArrow=none;dashed=1;dashPattern=1 2;labelBackgroundColor=none;strokeColor=#000000;" edge="1" parent="1" source="6j4duPhXvXTDxxQr8vu_-16" target="6j4duPhXvXTDxxQr8vu_-13">
          <mxGeometry relative="1" as="geometry">
            <Array as="points">
              <mxPoint x="980" y="291" />
              <mxPoint x="980" y="291" />
            </Array>
          </mxGeometry>
        </mxCell>
        <mxCell id="6j4duPhXvXTDxxQr8vu_-16" value="" style="verticalLabelPosition=bottom;sketch=0;aspect=fixed;html=1;verticalAlign=top;strokeColor=none;align=center;outlineConnect=0;shape=mxgraph.citrix.laptop_1;labelBackgroundColor=none;fillColor=#F45B69;fontColor=#E4FDE1;" vertex="1" parent="1">
          <mxGeometry x="920" y="175" width="91" height="77" as="geometry" />
        </mxCell>
        <mxCell id="6j4duPhXvXTDxxQr8vu_-69" style="edgeStyle=orthogonalEdgeStyle;rounded=0;orthogonalLoop=1;jettySize=auto;html=1;fontFamily=Helvetica;fontSize=12;fontColor=default;dashed=1;dashPattern=1 2;curved=1;endArrow=none;startFill=0;labelBackgroundColor=none;strokeColor=#000000;" edge="1" parent="1" source="6j4duPhXvXTDxxQr8vu_-17" target="6j4duPhXvXTDxxQr8vu_-13">
          <mxGeometry relative="1" as="geometry">
            <Array as="points">
              <mxPoint x="850" y="213" />
              <mxPoint x="850" y="321" />
            </Array>
          </mxGeometry>
        </mxCell>
        <mxCell id="6j4duPhXvXTDxxQr8vu_-17" value="" style="verticalLabelPosition=bottom;sketch=0;aspect=fixed;html=1;verticalAlign=top;strokeColor=none;align=center;outlineConnect=0;shape=mxgraph.citrix.laptop_1;labelBackgroundColor=none;fillColor=#F45B69;fontColor=#E4FDE1;" vertex="1" parent="1">
          <mxGeometry x="719" y="175" width="91" height="77" as="geometry" />
        </mxCell>
        <mxCell id="6j4duPhXvXTDxxQr8vu_-18" value="" style="verticalLabelPosition=bottom;aspect=fixed;html=1;verticalAlign=top;strokeColor=#028090;align=center;outlineConnect=0;shape=mxgraph.citrix.license_server;fillColor=#F45B69;fillStyle=auto;labelBackgroundColor=none;fontColor=#E4FDE1;" vertex="1" parent="1">
          <mxGeometry x="500" y="151.5" width="65" height="85" as="geometry" />
        </mxCell>
        <mxCell id="6j4duPhXvXTDxxQr8vu_-80" style="edgeStyle=orthogonalEdgeStyle;rounded=0;orthogonalLoop=1;jettySize=auto;html=1;fontFamily=Helvetica;fontSize=12;fontColor=default;endArrow=none;startFill=0;dashed=1;dashPattern=1 2;curved=1;labelBackgroundColor=none;strokeColor=#000000;" edge="1" parent="1" source="6j4duPhXvXTDxxQr8vu_-19" target="6j4duPhXvXTDxxQr8vu_-13">
          <mxGeometry relative="1" as="geometry">
            <Array as="points">
              <mxPoint x="1170" y="271" />
              <mxPoint x="965" y="271" />
            </Array>
          </mxGeometry>
        </mxCell>
        <mxCell id="6j4duPhXvXTDxxQr8vu_-19" value="" style="verticalLabelPosition=bottom;sketch=0;aspect=fixed;html=1;verticalAlign=top;strokeColor=none;align=center;outlineConnect=0;shape=mxgraph.citrix.laptop_1;labelBackgroundColor=none;fillColor=#F45B69;fontColor=#E4FDE1;" vertex="1" parent="1">
          <mxGeometry x="1124.5" y="171" width="91" height="77" as="geometry" />
        </mxCell>
        <mxCell id="6j4duPhXvXTDxxQr8vu_-30" style="edgeStyle=orthogonalEdgeStyle;rounded=0;orthogonalLoop=1;jettySize=auto;html=1;curved=1;strokeColor=#000000;startArrow=none;startFill=0;dashed=1;dashPattern=1 2;endArrow=none;endSize=6;labelBackgroundColor=none;fontColor=default;" edge="1" parent="1" source="6j4duPhXvXTDxxQr8vu_-13" target="6j4duPhXvXTDxxQr8vu_-12">
          <mxGeometry relative="1" as="geometry" />
        </mxCell>
        <mxCell id="6j4duPhXvXTDxxQr8vu_-33" style="edgeStyle=orthogonalEdgeStyle;rounded=0;orthogonalLoop=1;jettySize=auto;html=1;entryX=0.933;entryY=0.598;entryDx=0;entryDy=0;entryPerimeter=0;curved=1;dashed=1;dashPattern=1 2;endArrow=none;startFill=0;labelBackgroundColor=none;strokeColor=#000000;fontColor=default;" edge="1" parent="1" source="6j4duPhXvXTDxxQr8vu_-12" target="6j4duPhXvXTDxxQr8vu_-4">
          <mxGeometry relative="1" as="geometry" />
        </mxCell>
        <mxCell id="6j4duPhXvXTDxxQr8vu_-48" value="&lt;h3&gt;&lt;span style=&quot;font-weight: normal; color: rgb(0, 0, 0);&quot;&gt;&lt;font&gt;&lt;i&gt;Serverraum&lt;/i&gt;&lt;/font&gt;&lt;/span&gt;&lt;/h3&gt;" style="text;html=1;align=center;verticalAlign=middle;whiteSpace=wrap;rounded=0;labelBackgroundColor=none;fontColor=#E4FDE1;" vertex="1" parent="1">
          <mxGeometry x="550.5" y="80" width="72" height="30" as="geometry" />
        </mxCell>
        <mxCell id="6j4duPhXvXTDxxQr8vu_-49" value="&lt;h3&gt;&lt;span style=&quot;font-weight: normal; color: rgb(0, 0, 0);&quot;&gt;&lt;i&gt;Büro&lt;/i&gt;&lt;/span&gt;&lt;/h3&gt;" style="text;html=1;align=center;verticalAlign=middle;whiteSpace=wrap;rounded=0;labelBackgroundColor=none;fontColor=#E4FDE1;" vertex="1" parent="1">
          <mxGeometry x="1199" y="78" width="60" height="30" as="geometry" />
        </mxCell>
        <mxCell id="6j4duPhXvXTDxxQr8vu_-50" value="Werkstatt PC 1" style="text;html=1;align=center;verticalAlign=middle;whiteSpace=wrap;rounded=0;fontFamily=Helvetica;fontSize=12;fontColor=#E4FDE1;labelBackgroundColor=none;" vertex="1" parent="1">
          <mxGeometry x="966.75" y="492" width="95.5" height="30" as="geometry" />
        </mxCell>
        <mxCell id="6j4duPhXvXTDxxQr8vu_-51" value="Werkstatt PC 2" style="text;html=1;align=center;verticalAlign=middle;whiteSpace=wrap;rounded=0;fontFamily=Helvetica;fontSize=12;fontColor=#E4FDE1;labelBackgroundColor=none;" vertex="1" parent="1">
          <mxGeometry x="1150" y="419" width="85.5" height="30" as="geometry" />
        </mxCell>
        <mxCell id="6j4duPhXvXTDxxQr8vu_-52" value="Laptop 1" style="text;html=1;align=center;verticalAlign=middle;whiteSpace=wrap;rounded=0;fontFamily=Helvetica;fontSize=12;fontColor=#E4FDE1;labelBackgroundColor=none;" vertex="1" parent="1">
          <mxGeometry x="777.25" y="241" width="55.5" height="29" as="geometry" />
        </mxCell>
        <mxCell id="6j4duPhXvXTDxxQr8vu_-53" value="Laptop 2" style="text;html=1;align=center;verticalAlign=middle;whiteSpace=wrap;rounded=0;fontFamily=Helvetica;fontSize=12;fontColor=#E4FDE1;labelBackgroundColor=none;" vertex="1" parent="1">
          <mxGeometry x="870" y="138" width="55.5" height="29" as="geometry" />
        </mxCell>
        <mxCell id="6j4duPhXvXTDxxQr8vu_-54" value="Laptop 3" style="text;html=1;align=center;verticalAlign=middle;whiteSpace=wrap;rounded=0;fontFamily=Helvetica;fontSize=12;fontColor=#E4FDE1;labelBackgroundColor=none;" vertex="1" parent="1">
          <mxGeometry x="984.5" y="241" width="55.5" height="29" as="geometry" />
        </mxCell>
        <mxCell id="6j4duPhXvXTDxxQr8vu_-55" value="Laptop 4" style="text;html=1;align=center;verticalAlign=middle;whiteSpace=wrap;rounded=0;fontFamily=Helvetica;fontSize=12;fontColor=#E4FDE1;labelBackgroundColor=none;" vertex="1" parent="1">
          <mxGeometry x="1085.5" y="138" width="55.5" height="29" as="geometry" />
        </mxCell>
        <mxCell id="6j4duPhXvXTDxxQr8vu_-56" value="Multifunktionsdrucker" style="text;html=1;align=center;verticalAlign=middle;whiteSpace=wrap;rounded=0;fontFamily=Helvetica;fontSize=12;fontColor=#E4FDE1;labelBackgroundColor=none;" vertex="1" parent="1">
          <mxGeometry x="777.25" y="465" width="55.5" height="29" as="geometry" />
        </mxCell>
        <mxCell id="6j4duPhXvXTDxxQr8vu_-57" value="Laptop 5" style="text;html=1;align=center;verticalAlign=middle;whiteSpace=wrap;rounded=0;fontFamily=Helvetica;fontSize=12;fontColor=#E4FDE1;labelBackgroundColor=none;" vertex="1" parent="1">
          <mxGeometry x="1174.5" y="241" width="55.5" height="29" as="geometry" />
        </mxCell>
        <mxCell id="6j4duPhXvXTDxxQr8vu_-58" value="NAS Server" style="text;html=1;align=center;verticalAlign=middle;whiteSpace=wrap;rounded=0;fontFamily=Helvetica;fontSize=12;fontColor=#E4FDE1;labelBackgroundColor=none;" vertex="1" parent="1">
          <mxGeometry x="450" y="492" width="69.5" height="30" as="geometry" />
        </mxCell>
        <mxCell id="6j4duPhXvXTDxxQr8vu_-59" value="Server" style="text;html=1;align=center;verticalAlign=middle;whiteSpace=wrap;rounded=0;fontFamily=Helvetica;fontSize=12;fontColor=#E4FDE1;labelBackgroundColor=none;" vertex="1" parent="1">
          <mxGeometry x="530" y="236.5" width="49.5" height="20" as="geometry" />
        </mxCell>
        <mxCell id="6j4duPhXvXTDxxQr8vu_-60" value="Hauptswitch" style="text;html=1;align=center;verticalAlign=middle;whiteSpace=wrap;rounded=0;fontFamily=Helvetica;fontSize=12;fontColor=#E4FDE1;labelBackgroundColor=none;" vertex="1" parent="1">
          <mxGeometry x="481" y="330" width="69.5" height="30" as="geometry" />
        </mxCell>
        <mxCell id="6j4duPhXvXTDxxQr8vu_-61" value="Büroswitch" style="text;html=1;align=center;verticalAlign=middle;whiteSpace=wrap;rounded=0;fontFamily=Helvetica;fontSize=12;fontColor=#E4FDE1;labelBackgroundColor=none;" vertex="1" parent="1">
          <mxGeometry x="989.5" y="330" width="69.5" height="30" as="geometry" />
        </mxCell>
        <mxCell id="6j4duPhXvXTDxxQr8vu_-62" value="&lt;span style=&quot;color: rgb(255, 255, 255);&quot;&gt;Firewall&lt;/span&gt;" style="text;html=1;align=center;verticalAlign=middle;whiteSpace=wrap;rounded=0;fontFamily=Helvetica;fontSize=12;fontColor=#E4FDE1;labelBackgroundColor=none;" vertex="1" parent="1">
          <mxGeometry x="250" y="360" width="69.5" height="30" as="geometry" />
        </mxCell>
        <mxCell id="6j4duPhXvXTDxxQr8vu_-63" value="&lt;span style=&quot;color: rgb(255, 255, 255);&quot;&gt;Internet Router&lt;/span&gt;" style="text;html=1;align=center;verticalAlign=middle;whiteSpace=wrap;rounded=0;fontFamily=Helvetica;fontSize=12;fontColor=#E4FDE1;labelBackgroundColor=none;" vertex="1" parent="1">
          <mxGeometry x="269" y="198.5" width="90" height="30" as="geometry" />
        </mxCell>
        <mxCell id="6j4duPhXvXTDxxQr8vu_-64" value="" style="verticalLabelPosition=bottom;sketch=0;aspect=fixed;html=1;verticalAlign=top;strokeColor=none;align=center;outlineConnect=0;shape=mxgraph.citrix.globe;fontFamily=Helvetica;fontSize=12;fontColor=#E4FDE1;fillColor=#F45B69;labelBackgroundColor=none;" vertex="1" parent="1">
          <mxGeometry x="100" y="236.5" width="78.5" height="75" as="geometry" />
        </mxCell>
        <mxCell id="6j4duPhXvXTDxxQr8vu_-92" value="&lt;span style=&quot;color: rgb(255, 255, 255);&quot;&gt;Internet&lt;/span&gt;" style="text;html=1;align=center;verticalAlign=middle;whiteSpace=wrap;rounded=0;fontFamily=Helvetica;fontSize=12;fontColor=#E4FDE1;labelBackgroundColor=none;" vertex="1" parent="1">
          <mxGeometry x="104.5" y="311.5" width="69.5" height="30" as="geometry" />
        </mxCell>
      </root>
    </mxGraphModel>
  </diagram>
</mxfile>
